<svg width="181" height="181" fill="none" xmlns="http://www.w3.org/2000/svg"><g clip-path="url(#clip0_2878_4010)"><path d="M0 32C0 14.327 14.327 0 32 0h117c17.673 0 32 14.327 32 32v117c0 17.673-14.327 32-32 32H32c-17.673 0-32-14.327-32-32V32z" fill="#C6A0FF"/><path d="M14.166 185.4c-.946-.833-3.05-.827-4.574-1.114-10.045-1.892-25.576-3.371-23.823-17.31.93-7.392 12.577-11.127 17.472-15.328 16.87-14.472 8.046-51.225 37.372-65.309 27.755-13.332 58.854-.888 68.445 28.316 18.713 56.965-17.44 111.959-79.731 105.686-11.478-1.154-36.307-10.577-33.4-25.226 1.192-6.006 8.203-4.545 12.658-5.051 1.878-.211 5.176-.391 5.917-2.645.321-.977.136-1.605-.336-2.022v.003z" fill="#fff"/><path d="M75.132 113.377c-.865-.119-1.661-.015-2.37.173a5.17 5.17 0 0 0-2.089 1.097 6.918 6.918 0 0 0-1.519 1.82c-.382.659-.674 1.409-.905 2.201a14.528 14.528 0 0 0-.51 2.329c-.104.81-.104 1.583-.095 2.387a17 17 0 0 0 .182 2.378c.119.779.333 1.569.556 2.324.223.755.46 1.559.81 2.242.373.741.827 1.409 1.32 1.996.532.628 1.177 1.097 1.85 1.479a9.112 9.112 0 0 0 2.185.891c.865.223 1.63.237 2.33.087a4.288 4.288 0 0 0 2.065-1.059 6.634 6.634 0 0 0 1.406-1.893c.333-.668.573-1.432.778-2.233.191-.741.35-1.519.429-2.329.078-.81.159-1.568.141-2.37-.014-.804-.159-1.574-.269-2.361a18.586 18.586 0 0 0-.46-2.323 15.444 15.444 0 0 0-.81-2.228c-.341-.755-.674-1.478-1.128-2.083a7.085 7.085 0 0 0-1.716-1.631c-.628-.423-1.392-.779-2.193-.883l.009-.017.003.006zm-23.995 1.391c-.865-.118-1.652 0-2.361.191-.796.206-1.461.587-2.066 1.097-.605.509-1.128 1.082-1.533 1.796-.382.66-.715 1.392-.955 2.188-.223.74-.301 1.542-.405 2.346a15.62 15.62 0 0 0-.142 2.378c.015.805.127 1.583.246 2.37.119.787.237 1.582.46 2.337.223.756.518 1.537.86 2.22.373.74.833 1.391 1.327 1.973.533.628 1.097 1.209 1.774 1.591.778.437 1.533.677 2.216.851.865.222 1.638.231 2.343.078a4.367 4.367 0 0 0 2.084-1.065c.55-.509.992-1.169 1.365-1.915.333-.669.66-1.401.865-2.202.191-.741.278-1.536.359-2.346.078-.811.142-1.569.127-2.37a19.402 19.402 0 0 0-.173-2.369c-.11-.779-.365-1.551-.573-2.306-.206-.756-.428-1.551-.738-2.251-.341-.755-.706-1.464-1.16-2.069-.492-.668-1.105-1.177-1.742-1.606-.636-.428-1.365-.795-2.17-.905l-.008-.009v-.003z" fill="#000"/></g><defs><clipPath id="clip0_2878_4010"><path d="M0 32C0 14.327 14.327 0 32 0h117c17.673 0 32 14.327 32 32v117c0 17.673-14.327 32-32 32H32c-17.673 0-32-14.327-32-32V32z" fill="#fff"/></clipPath></defs></svg>